<svg xmlns="http://www.w3.org/2000/svg" xmlns:xlink="http://www.w3.org/1999/xlink" width="120" height="134" viewBox="0 0 120 134">
    <defs>
        <path id="a" d="M112.588 88.246c-10.12 18.524-29.783 31.09-52.38 31.09C27.266 119.336.56 92.63.56 59.688.56 26.746 27.266.04 60.208.04c22.597 0 42.26 12.566 52.38 31.091v57.115z"/>
        <path id="c" d="M5.275.567C2.515.567.278 2.639.278 5.197v93.537c0 2.557 2.237 4.63 4.997 4.63h47.467c2.759 0 4.996-2.073 4.996-4.63V5.197c0-2.558-2.237-4.63-4.996-4.63H5.275z"/>
        <path id="e" d="M5.566.501C2.638.501.409 2.571.409 5.145v93.4c0 2.574 2.229 4.644 5.157 4.644H52.49c2.928 0 5.156-2.07 5.156-4.644v-93.4c0-2.575-2.228-4.644-5.156-4.644H5.566z"/>
        <path id="g" d="M.278 75.197h57.46V.134H.277z"/>
        <path id="i" d="M.167 4.774a4.241 4.241 0 1 0 8.481 0c0-2.345-1.9-4.245-4.24-4.245-2.342 0-4.24 1.9-4.24 4.245z"/>
        <path id="k" d="M2.098.08A1.54 1.54 0 0 0 .55 1.628c0 .856.678 1.548 1.547 1.548h11.86c.867 0 1.547-.692 1.547-1.548A1.54 1.54 0 0 0 13.957.08H2.097z"/>
        <path id="m" d="M4.676.295C2.693.295.278 2.612.278 4.52v32.12L36.536.296H4.676z"/>
        <path id="o" d="M.356.11a.192.192 0 0 0-.19.193v53.739c0 .106.085.191.19.191h50.105c.105 0 .19-.085.19-.191V.303a.192.192 0 0 0-.19-.193H.356z"/>
        <path id="q" d="M42.658.038V8.81c0-.094-.092 0 0 0H.375c.091 0 0-.094 0 0V.038h42.283zm0 0c-.062 0-.04.04-.02.04.01 0 .02-.01.02-.04zM.375.038c0 .03.01.04.02.04.02 0 .04-.04-.02-.04z"/>
        <path id="s" d="M25.258.043c0 .092-.091 0 0 0H9.038L.432 8.815h24.826c-.091 0 0-.094 0 0V.043z"/>
        <path id="u" d="M23.658 1.714A1.335 1.335 0 1 0 24.994.377c-.739 0-1.336.6-1.336 1.337zm-5.822 0a1.336 1.336 0 1 0 2.672 0 1.336 1.336 0 0 0-2.672 0zm-5.822 0a1.336 1.336 0 1 0 2.672 0 1.336 1.336 0 0 0-2.672 0zm-5.822 0a1.336 1.336 0 1 0 2.672 0 1.336 1.336 0 0 0-2.672 0zm-5.821 0a1.336 1.336 0 1 0 2.672 0 1.336 1.336 0 0 0-2.672 0z"/>
    </defs>
    <g fill="none" fill-rule="evenodd">
        <path fill="#A98C57" d="M119.856 60.108c0 32.943-26.706 59.648-59.648 59.648C27.266 119.756.56 93.051.56 60.108.56 27.166 27.266.46 60.208.46c32.942 0 59.648 26.706 59.648 59.648"/>
        <g transform="translate(0 .42)">
            <mask id="b" fill="#fff">
                <use xlink:href="#a"/>
            </mask>
            <path fill="#D8BE75" d="M112.588 6.663L-1.979 121.23-39.6 36.646S2.313-6.999 8.634-10.636c6.32-3.637 52.65-10.184 52.65-10.184l24.184.728 27.12 26.755z" mask="url(#b)"/>
        </g>
        <g transform="translate(31.2 30.42)">
            <mask id="d" fill="#fff">
                <use xlink:href="#c"/>
            </mask>
            <path fill="#5BBEFF" d="M-3.634 107.276H61.65V-3.345H-3.634z" mask="url(#d)"/>
        </g>
        <g transform="translate(31.2 28.02)">
            <mask id="f" fill="#fff">
                <use xlink:href="#e"/>
            </mask>
            <path fill="#2A86CA" d="M-3.503 107.101h65.06V-3.41h-65.06z" mask="url(#f)"/>
        </g>
        <g transform="translate(31.2 40.62)">
            <mask id="h" fill="#fff">
                <use xlink:href="#g"/>
            </mask>
            <path fill="#004481" d="M-3.634 79.109H61.65V-3.778H-3.634z" mask="url(#h)"/>
        </g>
        <g transform="translate(55.8 118.62)">
            <mask id="j" fill="#fff">
                <use xlink:href="#i"/>
            </mask>
            <path fill="#004481" d="M-3.744 12.928H12.56v-16.31H-3.744z" mask="url(#j)"/>
        </g>
        <g transform="translate(52.2 31.02)">
            <mask id="l" fill="#fff">
                <use xlink:href="#k"/>
            </mask>
            <path fill="#004481" d="M-3.361 7.088h22.777V-3.83H-3.361z" mask="url(#l)"/>
        </g>
        <g transform="translate(31.2 28.02)">
            <mask id="n" fill="#fff">
                <use xlink:href="#m"/>
            </mask>
            <path fill="#FFF" d="M-3.633 40.552h44.08V-3.617h-44.08z" mask="url(#n)" opacity=".304"/>
        </g>
        <g transform="translate(34.8 49.02)">
            <mask id="p" fill="#fff">
                <use xlink:href="#o"/>
            </mask>
            <path fill="#FFF" d="M-3.747 58.145h58.31V-3.802h-58.31z" mask="url(#p)"/>
        </g>
        <g transform="translate(38.4 70.62)">
            <mask id="r" fill="#fff">
                <use xlink:href="#q"/>
            </mask>
            <path fill="#68CCCC" d="M-3.537 12.722H46.57V-3.874H-3.537z" mask="url(#r)"/>
        </g>
        <g transform="translate(55.8 70.62)">
            <mask id="t" fill="#fff">
                <use xlink:href="#s"/>
            </mask>
            <path fill="#02A5A5" d="M-3.48 12.727h32.65V-3.869H-3.48z" mask="url(#t)"/>
        </g>
        <g transform="translate(46.8 73.62)">
            <mask id="v" fill="#fff">
                <use xlink:href="#u"/>
            </mask>
            <path fill="#FFF" d="M-3.54 6.962h33.78V-3.534H-3.54z" mask="url(#v)"/>
        </g>
    </g>
</svg>
